<svg class="w-full fill-current" viewBox="0 0 24 24"><path d="M15.7,1.5A14.9,14.9,0,0,0,9.9,2.6s-2.4,1-2.4,2.6V6C3.6,6.2,0,7.7,0,9.7v9.1c0,2,3.7,3.7,8.3,3.7s8.2-1.7,8.2-3.7V18c4.2-.2,7.5-1.8,7.5-3.7V5.2C24,3.5,21.1,1.5,15.7,1.5ZM15,18.8c0,.6-2.4,2.2-6.7,2.2s-6.8-1.6-6.8-2.2V16.4A12.9,12.9,0,0,0,8.3,18,12.7,12.7,0,0,0,15,16.4Zm0-4.5c0,.6-2.4,2.2-6.7,2.2s-6.8-1.6-6.8-2.2V11.9a12.9,12.9,0,0,0,6.8,1.6A12.7,12.7,0,0,0,15,11.9ZM8.3,12c-3.8,0-6.9-1-6.9-2.3S4.5,7.5,8.3,7.5s6.8,1,6.8,2.2S12,12,8.3,12Zm14.2,2.3c0,.6-2.1,2-6,2.2V13.4a12,12,0,0,0,6-1.5Zm0-4.6c0,.7-2.1,2.1-6,2.3V9.7a1.9,1.9,0,0,0-.2-.7,12.8,12.8,0,0,0,6.2-1.6ZM15.7,7.5h-.9A13.1,13.1,0,0,0,9.4,6.1a1,1,0,0,1-.5-.8C8.9,4,12,3.1,15.7,3.1s6.9.9,6.9,2.2S19.5,7.5,15.7,7.5Z"/></svg>
