<svg class="w-full fill-current" viewBox="0 0 24 24"><path d="M24,7.7a2.9,2.9,0,0,0-.4-1.6L21,1.2A1.8,1.8,0,0,0,19.3,0H4.7A1.8,1.8,0,0,0,3,1.2L.4,6.1A3.2,3.2,0,0,0,0,7.7V22.3A1.8,1.8,0,0,0,1.7,24H22.3A1.8,1.8,0,0,0,24,22.3Zm-11.1-6h6.4l2.8,5.2H12.9Zm-8.2,0h6.4V6.9H1.9ZM12,22.3H1.7V8.6H22.3V22.3ZM16.8,11c-.7-.6-2.5-1.5-4.8.8C9.7,9.5,7.9,10.4,7.2,11a3.3,3.3,0,0,0-.3,4.8l4.6,4.6a.9.9,0,0,0,1,0l4.6-4.6a3.3,3.3,0,0,0-.3-4.8Zm-1,3.6L12,18.4,8.2,14.6a1.5,1.5,0,0,1,.1-2.3,1.5,1.5,0,0,1,2,.2L12,14.2l1.7-1.7a1.5,1.5,0,0,1,2-.2,1.5,1.5,0,0,1,.1,2.3Z"/></svg>
